STARTFONT 2.1
FONT -DEC-Miriam-Medium-R-Normal--14-100-100-100-P-81-ISO8859-8
SIZE 10 100 100
FONTBOUNDINGBOX 15 16 0 -3

STARTPROPERTIES 26
FONTNAME_REGISTRY ""
FAMILY_NAME "Miriam"
FOUNDRY "DEC"
WEIGHT_NAME "Medium"
SLANT "R"
SETWIDTH_NAME "Normal"
ADD_STYLE_NAME ""
PIXEL_SIZE 14
RESOLUTION_X 100
RESOLUTION_Y 100
SPACING "P"
AVERAGE_WIDTH 81
CHARSET_REGISTRY "ISO8859"
CHARSET_ENCODING "8"
CHARSET_COLLECTIONS "ASCII ISO8859-8 "
FULL_NAME "Miriam Medium"
COPYRIGHT "Digital Israel"
CAP_HEIGHT 11
X_HEIGHT 8
_DEC_DEVICE_FONTNAMES "PS=Miriam-ISOLatinHebrew"
QUAD_WIDTH 8
POINT_SIZE 100
WEIGHT 10
DEFAULT_CHAR 0
FONT_DESCENT 3
FONT_ASCENT 13
ENDPROPERTIES

CHARS 152

STARTCHAR space
ENCODING 32
SWIDTH 288 0
DWIDTH 4 0
BBX 1 1 0 0
BITMAP
00
ENDCHAR

STARTCHAR exclam
ENCODING 33
SWIDTH 288 0
DWIDTH 4 0
BBX 1 11 1 0
BITMAP
80
80
80
80
80
80
80
80
00
80
80
ENDCHAR

STARTCHAR quotedbl
ENCODING 34
SWIDTH 360 0
DWIDTH 5 0
BBX 3 3 1 8
BITMAP
A0
A0
A0
ENDCHAR

STARTCHAR numbersign
ENCODING 35
SWIDTH 576 0
DWIDTH 8 0
BBX 7 10 0 1
BITMAP
14
14
14
7E
28
28
FC
50
50
50
ENDCHAR

STARTCHAR dollar
ENCODING 36
SWIDTH 576 0
DWIDTH 8 0
BBX 7 15 0 -2
BITMAP
10
10
3A
56
92
90
50
38
14
12
92
D4
B8
10
10
ENDCHAR

STARTCHAR percent
ENCODING 37
SWIDTH 792 0
DWIDTH 11 0
BBX 10 11 0 0
BITMAP
7100
8900
8A00
8A00
7400
0400
0B80
1440
1440
2440
2380
ENDCHAR

STARTCHAR ampersand
ENCODING 38
SWIDTH 792 0
DWIDTH 11 0
BBX 10 11 0 0
BITMAP
3800
4400
4400
2800
3000
48C0
8500
8200
8300
4480
3840
ENDCHAR

STARTCHAR quoteright
ENCODING 39
SWIDTH 216 0
DWIDTH 3 0
BBX 2 2 0 9
BITMAP
40
80
ENDCHAR

STARTCHAR parenleft
ENCODING 40
SWIDTH 360 0
DWIDTH 5 0
BBX 4 13 0 -2
BITMAP
10
20
40
40
80
80
80
80
80
40
40
20
10
ENDCHAR

STARTCHAR parenright
ENCODING 41
SWIDTH 360 0
DWIDTH 5 0
BBX 4 13 0 -2
BITMAP
80
40
20
20
10
10
10
10
10
20
20
40
80
ENDCHAR

STARTCHAR asterisk
ENCODING 42
SWIDTH 432 0
DWIDTH 6 0
BBX 5 5 0 6
BITMAP
50
20
F8
20
50
ENDCHAR

STARTCHAR plus
ENCODING 43
SWIDTH 648 0
DWIDTH 9 0
BBX 7 7 0 2
BITMAP
10
10
10
FE
10
10
10
ENDCHAR

STARTCHAR comma
ENCODING 44
SWIDTH 288 0
DWIDTH 4 0
BBX 2 3 0 -1
BITMAP
40
40
80
ENDCHAR

STARTCHAR minus
ENCODING 45
SWIDTH 648 0
DWIDTH 9 0
BBX 7 1 0 5
BITMAP
FE
ENDCHAR

STARTCHAR period
ENCODING 46
SWIDTH 288 0
DWIDTH 4 0
BBX 1 2 1 0
BITMAP
80
80
ENDCHAR

STARTCHAR slash
ENCODING 47
SWIDTH 504 0
DWIDTH 7 0
BBX 6 13 0 -2
BITMAP
04
04
08
08
10
10
20
20
20
40
40
80
80
ENDCHAR

STARTCHAR zero
ENCODING 48
SWIDTH 576 0
DWIDTH 8 0
BBX 7 11 0 0
BITMAP
38
44
82
82
82
82
82
82
82
44
38
ENDCHAR

STARTCHAR one
ENCODING 49
SWIDTH 576 0
DWIDTH 8 0
BBX 4 11 1 0
BITMAP
E0
20
20
20
20
20
20
20
20
20
70
ENDCHAR

STARTCHAR two
ENCODING 50
SWIDTH 576 0
DWIDTH 8 0
BBX 7 11 0 0
BITMAP
38
44
82
82
04
08
10
20
40
82
FE
ENDCHAR

STARTCHAR three
ENCODING 51
SWIDTH 576 0
DWIDTH 8 0
BBX 7 11 0 0
BITMAP
38
44
04
04
18
04
02
82
82
44
38
ENDCHAR

STARTCHAR four
ENCODING 52
SWIDTH 576 0
DWIDTH 8 0
BBX 7 11 0 0
BITMAP
0C
14
14
24
24
44
44
84
FE
04
0E
ENDCHAR

STARTCHAR five
ENCODING 53
SWIDTH 576 0
DWIDTH 8 0
BBX 7 11 0 0
BITMAP
7C
40
80
B8
C4
02
02
82
82
44
38
ENDCHAR

STARTCHAR six
ENCODING 54
SWIDTH 576 0
DWIDTH 8 0
BBX 7 11 0 0
BITMAP
10
20
40
40
B8
C4
82
82
82
44
38
ENDCHAR

STARTCHAR seven
ENCODING 55
SWIDTH 576 0
DWIDTH 8 0
BBX 7 11 0 0
BITMAP
FE
82
04
04
08
08
10
10
20
20
20
ENDCHAR

STARTCHAR eight
ENCODING 56
SWIDTH 576 0
DWIDTH 8 0
BBX 7 11 0 0
BITMAP
38
44
44
44
38
44
82
82
82
44
38
ENDCHAR

STARTCHAR nine
ENCODING 57
SWIDTH 576 0
DWIDTH 8 0
BBX 7 11 0 0
BITMAP
38
44
82
82
82
42
3C
04
08
10
20
ENDCHAR

STARTCHAR colon
ENCODING 58
SWIDTH 288 0
DWIDTH 4 0
BBX 1 7 1 0
BITMAP
80
80
00
00
00
80
80
ENDCHAR

STARTCHAR semicolon
ENCODING 59
SWIDTH 288 0
DWIDTH 4 0
BBX 2 8 0 -1
BITMAP
40
40
00
00
00
40
40
80
ENDCHAR

STARTCHAR less
ENCODING 60
SWIDTH 720 0
DWIDTH 10 0
BBX 8 7 0 1
BITMAP
03
0C
30
C0
30
0C
03
ENDCHAR

STARTCHAR equal
ENCODING 61
SWIDTH 648 0
DWIDTH 9 0
BBX 7 3 0 4
BITMAP
FE
00
FE
ENDCHAR

STARTCHAR greater
ENCODING 62
SWIDTH 720 0
DWIDTH 10 0
BBX 8 7 1 1
BITMAP
C0
30
0C
03
0C
30
C0
ENDCHAR

STARTCHAR question
ENCODING 63
SWIDTH 504 0
DWIDTH 7 0
BBX 6 11 0 0
BITMAP
78
84
84
04
08
10
20
20
00
20
20
ENDCHAR

STARTCHAR at
ENCODING 64
SWIDTH 864 0
DWIDTH 12 0
BBX 11 11 0 0
BITMAP
1F00
60C0
4040
8D20
9320
A220
A240
9D80
4000
60C0
1F00
ENDCHAR

STARTCHAR A
ENCODING 65
SWIDTH 864 0
DWIDTH 12 0
BBX 11 11 0 0
BITMAP
1C00
0400
0A00
0A00
1100
1100
3F80
2080
2080
4040
E0E0
ENDCHAR

STARTCHAR B
ENCODING 66
SWIDTH 576 0
DWIDTH 8 0
BBX 7 11 0 0
BITMAP
F8
44
42
42
44
78
44
42
42
44
F8
ENDCHAR

STARTCHAR C
ENCODING 67
SWIDTH 792 0
DWIDTH 11 0
BBX 10 11 0 0
BITMAP
1F40
60C0
4040
8000
8000
8000
8000
8000
4040
6080
1F00
ENDCHAR

STARTCHAR D
ENCODING 68
SWIDTH 792 0
DWIDTH 11 0
BBX 10 11 0 0
BITMAP
FE00
4180
4080
4040
4040
4040
4040
4040
4080
4180
FE00
ENDCHAR

STARTCHAR E
ENCODING 69
SWIDTH 576 0
DWIDTH 8 0
BBX 7 11 0 0
BITMAP
FE
42
42
40
40
7C
40
40
42
42
FE
ENDCHAR

STARTCHAR F
ENCODING 70
SWIDTH 576 0
DWIDTH 8 0
BBX 7 11 0 0
BITMAP
FE
42
42
40
40
7C
40
40
40
40
E0
ENDCHAR

STARTCHAR G
ENCODING 71
SWIDTH 792 0
DWIDTH 11 0
BBX 10 11 0 0
BITMAP
1F40
60C0
4040
8000
8000
8000
87C0
8040
40C0
6140
1E40
ENDCHAR

STARTCHAR H
ENCODING 72
SWIDTH 720 0
DWIDTH 10 0
BBX 9 11 0 0
BITMAP
E380
4100
4100
4100
4100
7F00
4100
4100
4100
4100
E380
ENDCHAR

STARTCHAR I
ENCODING 73
SWIDTH 288 0
DWIDTH 4 0
BBX 3 11 0 0
BITMAP
E0
40
40
40
40
40
40
40
40
40
E0
ENDCHAR

STARTCHAR J
ENCODING 74
SWIDTH 504 0
DWIDTH 7 0
BBX 6 11 0 0
BITMAP
1C
08
08
08
08
08
08
08
88
88
70
ENDCHAR

STARTCHAR K
ENCODING 75
SWIDTH 720 0
DWIDTH 10 0
BBX 9 11 0 0
BITMAP
E380
4200
4400
4800
5000
6000
5000
4800
4400
4200
E380
ENDCHAR

STARTCHAR L
ENCODING 76
SWIDTH 504 0
DWIDTH 7 0
BBX 6 11 0 0
BITMAP
E0
40
40
40
40
40
40
40
40
44
FC
ENDCHAR

STARTCHAR M
ENCODING 77
SWIDTH 1008 0
DWIDTH 14 0
BBX 13 11 0 0
BITMAP
E038
6030
5050
5050
5050
4890
4890
4510
4510
4210
E238
ENDCHAR

STARTCHAR N
ENCODING 78
SWIDTH 864 0
DWIDTH 12 0
BBX 11 11 0 0
BITMAP
E0E0
6040
5040
4840
4840
4440
4240
4240
4140
40C0
E0C0
ENDCHAR

STARTCHAR O
ENCODING 79
SWIDTH 864 0
DWIDTH 12 0
BBX 11 11 0 0
BITMAP
1F00
60C0
4040
8020
8020
8020
8020
8020
4040
60C0
1F00
ENDCHAR

STARTCHAR P
ENCODING 80
SWIDTH 648 0
DWIDTH 9 0
BBX 8 11 0 0
BITMAP
FC
42
41
41
41
42
7C
40
40
40
E0
ENDCHAR

STARTCHAR Q
ENCODING 81
SWIDTH 864 0
DWIDTH 12 0
BBX 12 11 0 0
BITMAP
1F00
60C0
4040
8020
8020
8020
8020
9E20
6140
60D0
1F30
ENDCHAR

STARTCHAR R
ENCODING 82
SWIDTH 648 0
DWIDTH 9 0
BBX 9 11 0 0
BITMAP
FC00
4200
4100
4100
4100
4200
5C00
4800
4400
4200
E180
ENDCHAR

STARTCHAR S
ENCODING 83
SWIDTH 576 0
DWIDTH 8 0
BBX 7 11 0 0
BITMAP
3A
46
82
80
60
1C
06
02
82
C4
B8
ENDCHAR

STARTCHAR T
ENCODING 84
SWIDTH 576 0
DWIDTH 8 0
BBX 7 11 0 0
BITMAP
FE
92
10
10
10
10
10
10
10
10
38
ENDCHAR

STARTCHAR U
ENCODING 85
SWIDTH 720 0
DWIDTH 10 0
BBX 9 11 0 0
BITMAP
E380
4100
4100
4100
4100
4100
4100
4100
4100
2200
1C00
ENDCHAR

STARTCHAR V
ENCODING 86
SWIDTH 792 0
DWIDTH 11 0
BBX 11 11 0 0
BITMAP
E0E0
4040
2080
2080
2080
1100
1100
0A00
0A00
0400
0400
ENDCHAR

STARTCHAR W
ENCODING 87
SWIDTH 1080 0
DWIDTH 15 0
BBX 15 11 0 0
BITMAP
E10E
4104
4104
2288
2288
2288
1450
1450
1450
0820
0820
ENDCHAR

STARTCHAR X
ENCODING 88
SWIDTH 720 0
DWIDTH 10 0
BBX 10 11 0 0
BITMAP
7380
2100
1200
1200
0C00
0C00
1200
1200
2100
4080
E1C0
ENDCHAR

STARTCHAR Y
ENCODING 89
SWIDTH 648 0
DWIDTH 9 0
BBX 9 11 0 0
BITMAP
E380
4100
2200
2200
1400
1400
0800
0800
0800
0800
1C00
ENDCHAR

STARTCHAR Z
ENCODING 90
SWIDTH 576 0
DWIDTH 8 0
BBX 7 11 0 0
BITMAP
FE
82
84
08
08
10
20
20
42
82
FE
ENDCHAR

STARTCHAR bracketleft
ENCODING 91
SWIDTH 288 0
DWIDTH 4 0
BBX 3 13 0 -2
BITMAP
E0
80
80
80
80
80
80
80
80
80
80
80
E0
ENDCHAR

STARTCHAR backslash
ENCODING 92
SWIDTH 576 0
DWIDTH 8 0
BBX 6 11 0 0
BITMAP
80
40
40
20
20
10
10
08
08
04
04
ENDCHAR

STARTCHAR bracketright
ENCODING 93
SWIDTH 288 0
DWIDTH 4 0
BBX 3 13 0 -2
BITMAP
E0
20
20
20
20
20
20
20
20
20
20
20
E0
ENDCHAR

STARTCHAR asciicircum
ENCODING 94
SWIDTH 576 0
DWIDTH 8 0
BBX 7 8 0 3
BITMAP
10
10
28
28
44
44
82
82
ENDCHAR

STARTCHAR underscore
ENCODING 95
SWIDTH 504 0
DWIDTH 7 0
BBX 7 1 0 -2
BITMAP
FE
ENDCHAR

STARTCHAR quoteleft
ENCODING 96
SWIDTH 216 0
DWIDTH 3 0
BBX 2 2 0 9
BITMAP
80
40
ENDCHAR

STARTCHAR a
ENCODING 97
SWIDTH 648 0
DWIDTH 9 0
BBX 8 8 0 0
BITMAP
3B
46
82
82
82
82
46
3B
ENDCHAR

STARTCHAR b
ENCODING 98
SWIDTH 648 0
DWIDTH 9 0
BBX 8 11 0 0
BITMAP
C0
40
40
5C
62
41
41
41
41
62
DC
ENDCHAR

STARTCHAR c
ENCODING 99
SWIDTH 576 0
DWIDTH 8 0
BBX 7 8 0 0
BITMAP
3A
46
82
80
80
80
42
3C
ENDCHAR

STARTCHAR d
ENCODING 100
SWIDTH 648 0
DWIDTH 9 0
BBX 8 11 0 0
BITMAP
06
02
02
3A
46
82
82
82
82
46
3B
ENDCHAR

STARTCHAR e
ENCODING 101
SWIDTH 648 0
DWIDTH 9 0
BBX 8 8 0 0
BITMAP
3C
42
81
FF
80
81
42
3C
ENDCHAR

STARTCHAR f
ENCODING 102
SWIDTH 288 0
DWIDTH 4 0
BBX 4 11 0 0
BITMAP
30
40
40
E0
40
40
40
40
40
40
E0
ENDCHAR

STARTCHAR g
ENCODING 103
SWIDTH 648 0
DWIDTH 9 0
BBX 8 11 0 -3
BITMAP
3B
46
82
82
82
82
46
3A
02
84
78
ENDCHAR

STARTCHAR h
ENCODING 104
SWIDTH 648 0
DWIDTH 9 0
BBX 8 11 0 0
BITMAP
C0
40
40
5C
66
42
42
42
42
42
E7
ENDCHAR

STARTCHAR i
ENCODING 105
SWIDTH 288 0
DWIDTH 4 0
BBX 3 11 0 0
BITMAP
40
40
00
C0
40
40
40
40
40
40
E0
ENDCHAR

STARTCHAR j
ENCODING 106
SWIDTH 216 0
DWIDTH 3 0
BBX 2 14 0 -3
BITMAP
40
40
00
C0
40
40
40
40
40
40
40
40
40
80
ENDCHAR

STARTCHAR k
ENCODING 107
SWIDTH 576 0
DWIDTH 8 0
BBX 8 11 0 0
BITMAP
C0
40
40
47
44
48
50
70
48
44
E7
ENDCHAR

STARTCHAR l
ENCODING 108
SWIDTH 288 0
DWIDTH 4 0
BBX 3 11 0 0
BITMAP
C0
40
40
40
40
40
40
40
40
40
E0
ENDCHAR

STARTCHAR m
ENCODING 109
SWIDTH 1008 0
DWIDTH 14 0
BBX 13 8 0 0
BITMAP
DCE0
6730
4210
4210
4210
4210
4210
E738
ENDCHAR

STARTCHAR n
ENCODING 110
SWIDTH 720 0
DWIDTH 10 0
BBX 9 8 0 0
BITMAP
DE00
6300
4100
4100
4100
4100
4100
E380
ENDCHAR

STARTCHAR o
ENCODING 111
SWIDTH 648 0
DWIDTH 9 0
BBX 8 8 0 0
BITMAP
3C
42
81
81
81
81
42
3C
ENDCHAR

STARTCHAR p
ENCODING 112
SWIDTH 648 0
DWIDTH 9 0
BBX 8 11 0 -3
BITMAP
DC
62
41
41
41
41
62
5C
40
40
E0
ENDCHAR

STARTCHAR q
ENCODING 113
SWIDTH 720 0
DWIDTH 10 0
BBX 9 11 0 -3
BITMAP
3D80
4300
8100
8100
8100
8100
4300
3D00
0100
0100
0380
ENDCHAR

STARTCHAR r
ENCODING 114
SWIDTH 360 0
DWIDTH 5 0
BBX 4 8 0 0
BITMAP
D0
60
40
40
40
40
40
E0
ENDCHAR

STARTCHAR s
ENCODING 115
SWIDTH 504 0
DWIDTH 7 0
BBX 6 8 0 0
BITMAP
74
8C
84
60
18
84
C4
B8
ENDCHAR

STARTCHAR t
ENCODING 116
SWIDTH 360 0
DWIDTH 5 0
BBX 4 11 0 0
BITMAP
40
40
40
F0
40
40
40
40
40
40
70
ENDCHAR

STARTCHAR u
ENCODING 117
SWIDTH 648 0
DWIDTH 9 0
BBX 8 8 0 0
BITMAP
C6
42
42
42
42
42
66
3B
ENDCHAR

STARTCHAR v
ENCODING 118
SWIDTH 576 0
DWIDTH 8 0
BBX 9 8 0 0
BITMAP
E380
4100
2200
2200
1400
1400
0800
0800
ENDCHAR

STARTCHAR w
ENCODING 119
SWIDTH 720 0
DWIDTH 10 0
BBX 11 8 0 0
BITMAP
E0E0
4440
4440
2A80
2A80
2A80
1100
1100
ENDCHAR

STARTCHAR x
ENCODING 120
SWIDTH 648 0
DWIDTH 9 0
BBX 8 8 0 0
BITMAP
E7
42
24
18
18
24
42
E7
ENDCHAR

STARTCHAR y
ENCODING 121
SWIDTH 576 0
DWIDTH 8 0
BBX 9 11 0 -3
BITMAP
E380
4100
2200
2200
1400
1400
0800
0800
1000
1000
3800
ENDCHAR

STARTCHAR z
ENCODING 122
SWIDTH 504 0
DWIDTH 7 0
BBX 6 8 0 0
BITMAP
FC
84
88
10
20
44
84
FC
ENDCHAR

STARTCHAR braceleft
ENCODING 123
SWIDTH 288 0
DWIDTH 4 0
BBX 3 13 0 -2
BITMAP
20
40
40
40
40
80
40
40
40
40
40
40
20
ENDCHAR

STARTCHAR bar
ENCODING 124
SWIDTH 648 0
DWIDTH 9 0
BBX 1 11 4 0
BITMAP
80
80
80
80
80
80
80
80
80
80
80
ENDCHAR

STARTCHAR braceright
ENCODING 125
SWIDTH 288 0
DWIDTH 4 0
BBX 3 13 0 -2
BITMAP
80
40
40
40
40
20
40
40
40
40
40
40
80
ENDCHAR

STARTCHAR asciitilde
ENCODING 126
SWIDTH 648 0
DWIDTH 9 0
BBX 8 2 0 4
BITMAP
71
8E
ENDCHAR

STARTCHAR cent
ENCODING 162
SWIDTH 576 0
DWIDTH 8 0
BBX 6 10 0 1
BITMAP
10
10
7C
94
90
90
94
78
10
10
ENDCHAR

STARTCHAR sterling
ENCODING 163
SWIDTH 648 0
DWIDTH 9 0
BBX 8 11 0 0
BITMAP
1D
23
41
40
20
FE
10
10
11
21
FE
ENDCHAR

STARTCHAR currency
ENCODING 164
SWIDTH 576 0
DWIDTH 8 0
BBX 6 8 0 2
BITMAP
84
78
84
84
84
84
78
84
ENDCHAR

STARTCHAR yen
ENCODING 165
SWIDTH 720 0
DWIDTH 10 0
BBX 9 11 0 0
BITMAP
E380
4100
2200
2200
1400
7700
0800
7F00
0800
0800
1C00
ENDCHAR

STARTCHAR brokenbar
ENCODING 166
SWIDTH 648 0
DWIDTH 9 0
BBX 1 11 4 0
BITMAP
80
80
80
80
00
00
80
80
80
80
80
ENDCHAR

STARTCHAR section
ENCODING 167
SWIDTH 432 0
DWIDTH 6 0
BBX 5 13 0 -2
BITMAP
70
88
88
40
70
88
88
88
70
08
88
88
70
ENDCHAR

STARTCHAR dieresis
ENCODING 168
SWIDTH 360 0
DWIDTH 5 0
BBX 3 2 1 9
BITMAP
A0
A0
ENDCHAR

STARTCHAR copyright
ENCODING 169
SWIDTH 864 0
DWIDTH 12 0
BBX 11 11 0 0
BITMAP
1F00
60C0
4E40
9120
9020
9020
9020
9120
4E40
60C0
1F00
ENDCHAR

STARTCHAR multiply
ENCODING 170
SWIDTH 648 0
DWIDTH 9 0
BBX 7 7 0 2
BITMAP
82
44
28
10
28
44
82
ENDCHAR

STARTCHAR guillemotleft
ENCODING 171
SWIDTH 360 0
DWIDTH 5 0
BBX 4 3 0 3
BITMAP
50
A0
50
ENDCHAR

STARTCHAR logicalnot
ENCODING 172
SWIDTH 648 0
DWIDTH 9 0
BBX 8 4 0 3
BITMAP
FF
01
01
01
ENDCHAR

STARTCHAR hyphen
ENCODING 173
SWIDTH 288 0
DWIDTH 4 0
BBX 3 1 0 4
BITMAP
E0
ENDCHAR

STARTCHAR registered
ENCODING 174
SWIDTH 864 0
DWIDTH 12 0
BBX 11 11 0 0
BITMAP
1F00
60C0
5E40
9120
9120
9E20
9220
9120
5140
60C0
1F00
ENDCHAR

STARTCHAR macron
ENCODING 175
SWIDTH 504 0
DWIDTH 7 0
BBX 5 1 1 10
BITMAP
F8
ENDCHAR

STARTCHAR degree
ENCODING 176
SWIDTH 432 0
DWIDTH 6 0
BBX 4 4 0 7
BITMAP
60
90
90
60
ENDCHAR

STARTCHAR plusminus
ENCODING 177
SWIDTH 648 0
DWIDTH 9 0
BBX 7 7 1 2
BITMAP
10
10
FE
10
10
00
FE
ENDCHAR

STARTCHAR twosuperior
ENCODING 178
SWIDTH 360 0
DWIDTH 5 0
BBX 5 6 0 5
BITMAP
70
88
10
20
40
F8
ENDCHAR

STARTCHAR threesuperior
ENCODING 179
SWIDTH 360 0
DWIDTH 5 0
BBX 5 6 0 5
BITMAP
70
88
30
08
88
70
ENDCHAR

STARTCHAR acute
ENCODING 180
SWIDTH 360 0
DWIDTH 5 0
BBX 3 3 1 9
BITMAP
20
40
80
ENDCHAR

STARTCHAR mu
ENCODING 181
SWIDTH 648 0
DWIDTH 9 0
BBX 8 11 0 -3
BITMAP
C6
42
42
42
42
42
66
7B
40
40
40
ENDCHAR

STARTCHAR paragraph
ENCODING 182
SWIDTH 576 0
DWIDTH 8 0
BBX 7 13 0 -2
BITMAP
7E
F4
F4
F4
74
14
14
14
14
14
14
14
14
ENDCHAR

STARTCHAR periodcentered
ENCODING 183
SWIDTH 288 0
DWIDTH 4 0
BBX 1 2 1 4
BITMAP
80
80
ENDCHAR

STARTCHAR cedilla
ENCODING 184
SWIDTH 360 0
DWIDTH 5 0
BBX 3 4 1 -3
BITMAP
40
C0
20
C0
ENDCHAR

STARTCHAR onesuperior
ENCODING 185
SWIDTH 360 0
DWIDTH 5 0
BBX 3 6 1 5
BITMAP
C0
40
40
40
40
E0
ENDCHAR

STARTCHAR divide
ENCODING 186
SWIDTH 648 0
DWIDTH 9 0
BBX 7 7 0 2
BITMAP
10
10
00
FE
00
10
10
ENDCHAR

STARTCHAR guillemotright
ENCODING 187
SWIDTH 360 0
DWIDTH 5 0
BBX 4 3 0 3
BITMAP
A0
50
A0
ENDCHAR

STARTCHAR onequarter
ENCODING 188
SWIDTH 864 0
DWIDTH 12 0
BBX 10 11 1 0
BITMAP
C100
4200
4200
4400
4400
E880
0980
1280
1480
27C0
2080
ENDCHAR

STARTCHAR onehalf
ENCODING 189
SWIDTH 864 0
DWIDTH 12 0
BBX 10 11 1 0
BITMAP
C100
4200
4200
4400
4400
EB80
0C40
1080
1100
2200
27C0
ENDCHAR

STARTCHAR threequarters
ENCODING 190
SWIDTH 864 0
DWIDTH 12 0
BBX 11 11 0 0
BITMAP
7080
8900
3100
0A00
8A00
7440
04C0
0940
0A40
13E0
1040
ENDCHAR

STARTCHAR dblunderscore
ENCODING 223
SWIDTH 504 0
DWIDTH 7 0
BBX 7 8 0 -3
BITMAP
00
00
00
00
FE
00
00
FE
ENDCHAR

STARTCHAR aleph
ENCODING 224
SWIDTH 576 0
DWIDTH 8 0
BBX 8 10 0 0
BITMAP
00
4E
62
22
32
4C
48
44
44
72
ENDCHAR

STARTCHAR beth
ENCODING 225
SWIDTH 576 0
DWIDTH 8 0
BBX 7 10 0 0
BITMAP
00
78
08
08
08
08
08
08
08
FE
ENDCHAR

STARTCHAR gimmel
ENCODING 226
SWIDTH 504 0
DWIDTH 7 0
BBX 6 10 0 0
BITMAP
00
3C
04
04
04
0C
0C
14
24
C4
ENDCHAR

STARTCHAR daleth
ENCODING 227
SWIDTH 648 0
DWIDTH 9 0
BBX 8 10 0 0
BITMAP
00
7F
04
04
04
04
04
04
04
04
ENDCHAR

STARTCHAR he
ENCODING 228
SWIDTH 576 0
DWIDTH 8 0
BBX 8 10 0 0
BITMAP
00
7E
02
02
22
22
22
22
22
22
ENDCHAR

STARTCHAR waw
ENCODING 229
SWIDTH 288 0
DWIDTH 4 0
BBX 3 10 0 0
BITMAP
00
E0
20
20
20
20
20
20
20
20
ENDCHAR

STARTCHAR zayin
ENCODING 230
SWIDTH 360 0
DWIDTH 5 0
BBX 4 10 0 0
BITMAP
00
F0
40
40
40
40
40
40
40
40
ENDCHAR

STARTCHAR het
ENCODING 231
SWIDTH 576 0
DWIDTH 8 0
BBX 7 10 0 0
BITMAP
00
FE
44
44
44
44
44
44
44
44
ENDCHAR

STARTCHAR teth
ENCODING 232
SWIDTH 576 0
DWIDTH 8 0
BBX 7 10 0 0
BITMAP
00
CC
52
52
52
42
42
42
42
3C
ENDCHAR

STARTCHAR yod
ENCODING 233
SWIDTH 288 0
DWIDTH 4 0
BBX 3 7 0 3
BITMAP
00
E0
20
20
20
20
00
ENDCHAR

STARTCHAR kaphfinal
ENCODING 234
SWIDTH 576 0
DWIDTH 8 0
BBX 7 12 0 -2
BITMAP
00
FE
08
08
08
08
08
08
08
08
08
0E
ENDCHAR

STARTCHAR kaph
ENCODING 235
SWIDTH 432 0
DWIDTH 6 0
BBX 5 10 0 0
BITMAP
00
F0
08
08
08
08
08
08
08
F0
ENDCHAR

STARTCHAR lamed
ENCODING 236
SWIDTH 576 0
DWIDTH 8 0
BBX 7 12 0 -1
BITMAP
40
40
7E
02
02
02
02
0C
10
10
1C
00
ENDCHAR

STARTCHAR memfinal
ENCODING 237
SWIDTH 504 0
DWIDTH 7 0
BBX 7 10 0 0
BITMAP
00
FC
44
44
44
44
44
44
44
7C
ENDCHAR

STARTCHAR mem
ENCODING 238
SWIDTH 648 0
DWIDTH 9 0
BBX 8 11 0 0
BITMAP
00
00
EE
31
21
21
21
21
21
21
2F
ENDCHAR

STARTCHAR nunfinal
ENCODING 239
SWIDTH 288 0
DWIDTH 4 0
BBX 4 12 0 -2
BITMAP
00
E0
20
20
20
20
20
20
20
20
20
30
ENDCHAR

STARTCHAR nun
ENCODING 240
SWIDTH 360 0
DWIDTH 5 0
BBX 4 10 0 0
BITMAP
00
70
10
10
10
10
10
10
10
F0
ENDCHAR

STARTCHAR samekh
ENCODING 241
SWIDTH 648 0
DWIDTH 9 0
BBX 9 10 0 0
BITMAP
0000
7F00
2100
2100
2100
2100
2100
2100
1200
0C00
ENDCHAR

STARTCHAR ayin
ENCODING 242
SWIDTH 576 0
DWIDTH 8 0
BBX 7 11 0 -1
BITMAP
00
66
22
22
22
22
22
22
24
F8
00
ENDCHAR

STARTCHAR pefinal
ENCODING 243
SWIDTH 576 0
DWIDTH 8 0
BBX 8 12 0 -2
BITMAP
00
7C
44
44
44
44
64
04
04
04
04
07
ENDCHAR

STARTCHAR pe
ENCODING 244
SWIDTH 504 0
DWIDTH 7 0
BBX 6 10 0 0
BITMAP
00
7C
44
44
44
64
04
04
04
7C
ENDCHAR

STARTCHAR zadikfinal
ENCODING 245
SWIDTH 504 0
DWIDTH 7 0
BBX 6 12 0 -2
BITMAP
00
CC
44
44
44
48
70
40
40
40
40
70
ENDCHAR

STARTCHAR zadik
ENCODING 246
SWIDTH 576 0
DWIDTH 8 0
BBX 7 10 0 0
BITMAP
00
E6
22
22
24
18
08
04
04
FC
ENDCHAR

STARTCHAR kof
ENCODING 247
SWIDTH 576 0
DWIDTH 8 0
BBX 7 13 0 -3
BITMAP
00
FE
02
02
42
44
48
50
50
58
40
40
00
ENDCHAR

STARTCHAR resh
ENCODING 248
SWIDTH 504 0
DWIDTH 7 0
BBX 6 10 0 0
BITMAP
00
FC
04
04
04
04
04
04
04
04
ENDCHAR

STARTCHAR shin
ENCODING 249
SWIDTH 648 0
DWIDTH 9 0
BBX 8 10 0 0
BITMAP
00
6B
49
49
49
49
49
49
49
3E
ENDCHAR

STARTCHAR taf
ENCODING 250
SWIDTH 576 0
DWIDTH 8 0
BBX 7 10 0 0
BITMAP
00
FE
22
22
22
22
22
22
22
E2
ENDCHAR
ENDFONT
